<svg width="20" height="20" viewBox="0 0 20 20" fill="none" xmlns="http://www.w3.org/2000/svg">
<path d="M2.99526 8.05549C2.14089 6.04791 2.28329 3.03652 2.46128 1.78178C2.47933 1.64734 2.99526 0.437413 3.75174 1.78178C5.84317 4.33608 8.2461 6.44225 10.4265 6.98C12.607 7.51775 13.3189 6.71113 14.2979 6.17338C15.2769 5.63563 15.6329 4.96345 17.1013 4.96345C18.5698 4.96345 19.2372 5.99413 19.5932 6.44225C19.9492 6.89038 20.0827 6.98 19.9492 7.42812C19.8157 7.87625 19.1927 7.92106 18.6588 8.05549L18.6352 8.06142C18.1129 8.19275 17.7151 8.29278 17.1013 9.1758C16.4783 10.072 16.4338 10.6994 15.8999 12.4471C15.3659 14.1948 14.7429 14.9566 13.7194 16.0321C12.696 17.1076 10.649 17.3764 10.4265 17.3764C10.204 17.3764 8.86908 17.3316 7.71211 17.3764C6.55515 17.4213 6.37716 17.5109 5.70968 17.8694C5.0422 18.2279 2.99526 19.8411 2.99526 19.8859C2.99526 19.9307 2.46128 20.3789 1.70481 19.1241C0.948336 17.8694 0.147347 14.6877 0.0138516 14.1051C-0.0929449 13.6391 0.444004 13.4628 0.725829 13.433C0.963154 13.4778 1.7493 13.5405 2.99526 13.433C4.24123 13.3254 5.44268 12.7309 5.88766 12.4471C4.55271 11.1924 4.06323 10.565 2.99526 8.05549Z" fill="white"/>
<path d="M7.62312 4.0672C8.0147 2.63321 8.14227 1.13947 8.1571 0.571849C8.21185 -0.234771 8.73558 -0.145146 9.67005 0.571849C10.6045 1.28885 11.895 3.35021 12.1175 4.0672C12.3845 4.73939 12.5625 5.68045 12.518 5.81488C12.4735 5.94932 11.7615 6.17338 10.4265 5.81488C9.35856 5.52808 8.1126 4.53026 7.62312 4.0672Z" fill="white"/>
</svg>
